<svg width="15" height="15" viewBox="0 0 15 15" fill="none" xmlns="http://www.w3.org/2000/svg">
<path d="M7.06329 0C5.6663 0 4.30069 0.414254 3.13914 1.19038C1.97759 1.9665 1.07227 3.06964 0.537664 4.36028C0.00306041 5.65093 -0.136816 7.07112 0.135722 8.44126C0.408261 9.8114 1.08097 11.07 2.06879 12.0578C3.05661 13.0456 4.31517 13.7183 5.68531 13.9908C7.05545 14.2634 8.47564 14.1235 9.76629 13.5889C11.0569 13.0543 12.1601 12.149 12.9362 10.9874C13.7123 9.82588 14.1266 8.46027 14.1266 7.06328C14.1266 6.13572 13.9439 5.21724 13.5889 4.36028C13.2339 3.50332 12.7137 2.72467 12.0578 2.06879C11.4019 1.4129 10.6232 0.892624 9.76629 0.53766C8.90933 0.182697 7.99085 0 7.06329 0ZM7.06329 12.7139C5.9457 12.7139 4.85321 12.3825 3.92397 11.7616C2.99473 11.1407 2.27047 10.2582 1.84279 9.22568C1.41511 8.19317 1.3032 7.05701 1.52124 5.9609C1.73927 4.86479 2.27744 3.85794 3.06769 3.06769C3.85794 2.27743 4.86479 1.73926 5.9609 1.52123C7.05702 1.3032 8.19317 1.4151 9.22569 1.84279C10.2582 2.27047 11.1407 2.99472 11.7616 3.92396C12.3825 4.8532 12.7139 5.94569 12.7139 7.06328C12.7139 8.56192 12.1186 9.99918 11.0589 11.0589C9.99919 12.1186 8.56193 12.7139 7.06329 12.7139Z" fill="black"/>
<path d="M9.18227 6.35695H7.76962V4.9443C7.76962 4.75697 7.6952 4.57731 7.56274 4.44485C7.43028 4.31239 7.25062 4.23797 7.06329 4.23797C6.87596 4.23797 6.6963 4.31239 6.56384 4.44485C6.43138 4.57731 6.35696 4.75697 6.35696 4.9443V6.35695H4.9443C4.75697 6.35695 4.57732 6.43137 4.44485 6.56383C4.31239 6.69629 4.23798 6.87595 4.23798 7.06328C4.23798 7.25061 4.31239 7.43027 4.44485 7.56273C4.57732 7.69519 4.75697 7.76961 4.9443 7.76961H6.35696V9.18227C6.35696 9.3696 6.43138 9.54925 6.56384 9.68172C6.6963 9.81418 6.87596 9.8886 7.06329 9.8886C7.25062 9.8886 7.43028 9.81418 7.56274 9.68172C7.6952 9.54925 7.76962 9.3696 7.76962 9.18227V7.76961H9.18227C9.3696 7.76961 9.54926 7.69519 9.68172 7.56273C9.81419 7.43027 9.8886 7.25061 9.8886 7.06328C9.8886 6.87595 9.81419 6.69629 9.68172 6.56383C9.54926 6.43137 9.3696 6.35695 9.18227 6.35695Z" fill="black"/>
</svg>
